HIERARCHY
ROOT SpineBase
{
  OFFSET 0.000000 0.000000 0.000000
  CHANNELS 6 Xposition Yposition Zposition Zrotation Xrotation Yrotation
  JOINT SpineMid
  {
    OFFSET 0.000000 25.525175 0.000000
    CHANNELS 3 Zrotation Xrotation Yrotation
    JOINT SpineShoulder
    {
      OFFSET -0.029952 19.143460 -0.500022
      CHANNELS 3 Zrotation Xrotation Yrotation
      JOINT Neck
      {
        OFFSET -0.045666 6.414534 -0.460880
        CHANNELS 3 Zrotation Xrotation Yrotation
        JOINT Head
        {
          OFFSET 3.909545 11.806542 1.726785
          CHANNELS 3 Zrotation Xrotation Yrotation
          End Site
          {
            OFFSET 0 0 0
          }
        }
      }
      JOINT ShoulderLeft
      {
        OFFSET -13.480710 -1.666042 -5.064476
        CHANNELS 3 Zrotation Xrotation Yrotation
        JOINT ElbowLeft
        {
          OFFSET -13.381844 -18.624782 0.712131
          CHANNELS 3 Zrotation Xrotation Yrotation
          JOINT WristLeft
          {
            OFFSET 1.244690 -9.678280 -19.631195
            CHANNELS 3 Zrotation Xrotation Yrotation
            JOINT HandLeft
            {
              OFFSET -2.055048 -0.541916 -1.492734
              CHANNELS 3 Zrotation Xrotation Yrotation
              JOINT HandTipLeft
              {
                OFFSET -0.386138 -1.113355 -2.900641
                CHANNELS 3 Zrotation Xrotation Yrotation
                End Site
                {
                  OFFSET 0 0 0
                }
              }
              JOINT ThumbLeft
              {
                OFFSET -2.678812 5.294652 -1.492788
                CHANNELS 3 Zrotation Xrotation Yrotation
                End Site
                {
                  OFFSET 0 0 0
                }
              }
            }
          }
        }
      }
      JOINT ShoulderRight
      {
        OFFSET 14.772408 -2.176059 2.031293
        CHANNELS 3 Zrotation Xrotation Yrotation
        JOINT ElbowRight
        {
          OFFSET 6.804854 -23.822161 9.734391
          CHANNELS 3 Zrotation Xrotation Yrotation
          JOINT WristRight
          {
            OFFSET 9.016192 -15.742300 -14.214452
            CHANNELS 3 Zrotation Xrotation Yrotation
            JOINT HandRight
            {
              OFFSET -0.957616 -2.654316 -1.709390
              CHANNELS 3 Zrotation Xrotation Yrotation
              JOINT HandTipRight
              {
                OFFSET 0.126045 -2.051173 -3.547352
                CHANNELS 3 Zrotation Xrotation Yrotation
                End Site
                {
                  OFFSET 0 0 0
                }
              }
              JOINT ThumbRight
              {
                OFFSET -2.084898 1.223303 -1.848069
                CHANNELS 3 Zrotation Xrotation Yrotation
                End Site
                {
                  OFFSET 0 0 0
                }
              }
            }
          }
        }
      }
    }
  }
  JOINT HipLeft
  {
    OFFSET -6.206259 1.331821 -4.236285
    CHANNELS 3 Zrotation Xrotation Yrotation
    JOINT KneeLeft
    {
      OFFSET 4.021449 0.807382 -30.918648
      CHANNELS 3 Zrotation Xrotation Yrotation
      JOINT AnkleLeft
      {
        OFFSET 0.447599 -32.182249 -4.719591
        CHANNELS 3 Zrotation Xrotation Yrotation
        JOINT FootLeft
        {
          OFFSET 1.740873 -1.608734 -11.360210
          CHANNELS 3 Zrotation Xrotation Yrotation
          End Site
          {
            OFFSET 0 0 0
          }
        }
      }
    }
  }
  JOINT HipRight
  {
    OFFSET 5.723128 1.439388 -2.213687
    CHANNELS 3 Zrotation Xrotation Yrotation
    JOINT KneeRight
    {
      OFFSET 18.711176 0.103132 -23.823238
      CHANNELS 3 Zrotation Xrotation Yrotation
      JOINT AnkleRight
      {
        OFFSET -6.656547 -35.832707 5.665878
        CHANNELS 3 Zrotation Xrotation Yrotation
        JOINT FootRight
        {
          OFFSET 1.131800 -6.218637 -3.240129
          CHANNELS 3 Zrotation Xrotation Yrotation
          End Site
          {
            OFFSET 0 0 0
          }
        }
      }
    }
  }
}
MOTION
Frames: 5
Frame Time: 0.033333
24.023264 39.798735 351.738585 9.351122 -4.662615 -9.824219 -1.001953 0.443901 10.410576 -0.535448 0.234578 0.327993 6.710536 1.207386 -2.290938 0.000000 0.000000 0.000000 2.379640 0.216841 2.541599 -7.757092 -9.375712 -12.833528 51.829997 -44.854958 -41.969891 -55.414971 -10.472758 47.001273 0.000000 0.000000 0.000000 0.000000 0.000000 0.000000 7.645180 1.543563 4.484910 -6.300843 2.362530 -13.527813 9.170470 -22.648099 11.561302 -12.831516 -2.054889 -1.446569 0.000000 0.000000 0.000000 0.000000 0.000000 0.000000 -10.206356 9.773634 5.112591 -0.673155 -9.601155 5.346404 0.537328 2.090014 -1.040633 0.000000 0.000000 0.000000 -8.023135 7.250007 16.760829 14.413848 23.030992 -13.110813 1.225211 23.573840 2.230252 0.000000 0.000000 0.000000
24.163952 39.920133 351.817194 8.499955 -3.755926 -9.639111 -0.913814 0.220415 10.114741 -0.504953 0.219497 0.295918 5.812993 1.329488 -2.167711 0.000000 0.000000 0.000000 2.688570 0.059410 2.199300 -7.664246 -10.519829 -11.710226 49.490198 -44.880027 -45.837394 -56.633217 -10.408862 48.856468 0.000000 0.000000 0.000000 0.000000 0.000000 0.000000 6.814519 1.256765 4.148297 -5.375105 2.931069 -11.885116 10.714621 -19.902253 7.035668 -12.907567 -4.474467 -2.712075 0.000000 0.000000 0.000000 0.000000 0.000000 0.000000 -9.168031 8.452229 5.199107 -0.393084 -8.809166 4.884151 0.229266 2.144843 -0.691936 0.000000 0.000000 0.000000 -7.174380 6.142613 16.362669 11.441760 18.459446 -11.128167 -0.672869 24.374924 2.959546 0.000000 0.000000 0.000000
24.394729 40.076788 351.750228 7.754576 -2.667833 -9.488863 -0.878304 -0.124668 9.863018 -0.542818 0.281451 0.258716 4.733133 1.259497 -1.970314 0.000000 0.000000 0.000000 2.855344 -0.037416 1.698362 -7.209204 -11.181966 -10.476547 50.347233 -45.363860 -44.512957 -56.730868 -9.629053 46.308172 0.000000 0.000000 0.000000 0.000000 0.000000 0.000000 6.126864 0.518251 3.799949 -4.699000 4.233030 -9.829712 11.889909 -16.912254 2.228445 -12.637828 -8.782234 -2.573545 0.000000 0.000000 0.000000 0.000000 0.000000 0.000000 -8.221068 6.910786 5.450764 -0.138071 -7.885463 4.288783 -0.086985 2.332392 0.046832 0.000000 0.000000 0.000000 -6.379914 4.891382 15.880249 8.674664 14.117795 -9.431047 -1.329143 26.986656 3.540801 0.000000 0.000000 0.000000
24.745000 40.278663 351.570937 6.995380 -1.540886 -9.520410 -0.715231 -0.551071 9.806651 -0.531320 0.336965 0.228834 4.048415 1.144069 -1.861583 0.000000 0.000000 0.000000 2.811953 -0.133497 1.242975 -6.262867 -9.026413 -9.271711 53.418411 -44.646165 -36.285439 -47.248371 -11.342966 39.926215 0.000000 0.000000 0.000000 0.000000 0.000000 0.000000 5.698863 0.206750 3.624601 -2.620236 6.242691 -8.994523 9.799290 -30.527874 10.699275 -11.691980 3.439848 -5.557332 0.000000 0.000000 0.000000 0.000000 0.000000 0.000000 -7.285257 5.336572 6.105708 0.095798 -6.943121 3.489351 -0.372921 2.001001 0.088812 0.000000 0.000000 0.000000 -5.687994 3.375329 15.619725 6.328819 10.411924 -8.169018 -1.847801 24.600117 3.847179 0.000000 0.000000 0.000000
25.150419 40.484929 351.315713 6.333326 -0.450614 -9.695953 -0.612253 -0.877041 9.905202 -0.566797 0.420136 0.198236 3.872559 0.643524 -1.726762 0.000000 0.000000 0.000000 2.566623 -0.091639 0.594620 -5.056769 -7.495163 -8.282503 58.811446 -43.487580 -24.012720 -40.885866 -14.239764 31.278006 0.000000 0.000000 0.000000 0.000000 0.000000 0.000000 5.538639 0.064389 3.607901 -0.862122 7.697946 -8.501192 6.735592 -37.550307 14.925959 -10.294512 8.531897 -4.138515 0.000000 0.000000 0.000000 0.000000 0.000000 0.000000 -6.460518 3.779043 7.035653 0.306948 -6.081839 2.588193 -0.627054 1.725184 0.125130 0.000000 0.000000 0.000000 -5.135744 1.807164 15.536862 4.409360 7.604805 -7.309629 -1.249379 24.740526 3.925648 0.000000 0.000000 0.000000
